<?xml version="1.0" encoding="UTF-8"?>
<svg width="31.158mm" height="31.212mm" version="1.1" viewBox="0 0 31.158 31.212" xmlns="http://www.w3.org/2000/svg" xmlns:cc="http://creativecommons.org/ns#" xmlns:dc="http://purl.org/dc/elements/1.1/" xmlns:rdf="http://www.w3.org/1999/02/22-rdf-syntax-ns#">
 <metadata>
  <rdf:RDF>
   <cc:Work rdf:about="">
    <dc:format>image/svg+xml</dc:format>
    <dc:type rdf:resource="http://purl.org/dc/dcmitype/StillImage"/>
    <dc:title/>
   </cc:Work>
  </rdf:RDF>
 </metadata>
 <g transform="translate(-157.41 -124.32)" fill="#c8c8c8" stroke-width="1.0006">
  <g transform="matrix(.35278 0 0 -.35278 172.96 124.32)">
   <path d="m0 0c-23.237 0-42.274-17.918-44.084-40.689l23.71-9.803c2.009 1.374 4.436 2.178 7.047 2.178 0.234 0 0.467-7e-3 0.698-0.02l10.544 15.283c0 0.073-1e-3 0.144-1e-3 0.216 0 9.199 7.483 16.683 16.683 16.683 9.199 0 16.682-7.484 16.682-16.683s-7.483-16.684-16.682-16.684c-0.127 0-0.253 3e-3 -0.379 6e-3l-15.038-10.73c8e-3 -0.196 0.015-0.394 0.015-0.592 0-6.906-5.617-12.523-12.522-12.523-6.061 0-11.129 4.327-12.277 10.055l-16.956 7.011c5.25-18.569 22.309-32.181 42.56-32.181 24.432 0 44.237 19.806 44.237 44.236 0 24.432-19.805 44.237-44.237 44.237" fill="#c8c8c8"/>
  </g>
  <g transform="matrix(.35278 0 0 -.35278 167.18 148)">
   <path d="m0 0-5.434 2.245c0.963-2.005 2.629-3.683 4.841-4.606 4.782-1.992 10.295 0.277 12.288 5.062 0.965 2.315 0.971 4.87 0.014 7.19-0.955 2.321-2.757 4.131-5.074 5.097-2.299 0.957-4.762 0.921-6.926 0.105l5.613-2.321c3.527-1.47 5.195-5.52 3.725-9.047-1.468-3.527-5.52-5.195-9.047-3.725" fill="#c8c8c8"/>
  </g>
  <g transform="matrix(.35278 0 0 -.35278 175.17 135.9)">
   <path d="m0 0c0 4.612 3.739 8.35 8.351 8.35s8.351-3.738 8.351-8.35-3.739-8.35-8.351-8.35-8.351 3.738-8.351 8.35m19.448-0.019c0 6.129-4.986 11.116-11.116 11.116-6.129 0-11.116-4.987-11.116-11.116 0-6.13 4.987-11.115 11.116-11.115 6.13 0 11.116 4.985 11.116 11.115" fill="#c8c8c8"/>
  </g>
 </g>
</svg>
