<?xml version="1.0" encoding="UTF-8"?>
<svg width="860" height="860" enable-background="new 0 0 712 860" version="1.1" viewBox="0 0 860 860" xml:space="preserve" xmlns="http://www.w3.org/2000/svg" xmlns:cc="http://creativecommons.org/ns#" xmlns:dc="http://purl.org/dc/elements/1.1/" xmlns:rdf="http://www.w3.org/1999/02/22-rdf-syntax-ns#"><metadata><rdf:RDF><cc:Work rdf:about=""><dc:format>image/svg+xml</dc:format><dc:type rdf:resource="http://purl.org/dc/dcmitype/StillImage"/><dc:title/></cc:Work></rdf:RDF></metadata><path d="m448.01 0.99805c-5.51-0.01-11.26 0.22117-17.25 0.70117-151.44 12.19-111.27 172.19-113.52 225.76-2.77 39.18-10.71 70.059-37.66 108.36-31.65 37.64-76.23 98.57-97.34 162-9.96 29.93-14.7 60.44-10.33 89.32-1.37 1.23-2.6699 2.5198-3.9199 3.8398-9.29 9.93-16.159 21.949-23.809 30.039-7.15 7.141-17.331 9.8523-28.531 13.861-11.2 4.021-23.489 9.9398-30.949 24.26 0 0 2.34e-4 0.00977-0.009766 0.00977-0.01 0.02-0.021015 0.05131-0.041015 0.07031-3.51 6.55-4.6484 13.619-4.6484 20.789 0 6.63 0.97875 13.351 1.9688 19.82 2.06 13.46 4.1509 26.19 1.3809 34.811-8.86 24.23-9.9998 40.98-3.7598 53.141 6.26 12.18 19.109 17.55 33.639 20.59 29.06 6.06 68.41 4.56 99.42 21l2.6699-5.0293-2.6387 5.0391c33.2 17.36 66.859 23.522 93.709 17.391 19.48-4.439 35.28-16.04 43.4-33.881 21-0.1 44.051-9.0003 80.971-11.029 25.05-2.021 56.34 8.9004 92.33 6.9004 0.94 3.9 2.3012 7.6585 4.1602 11.229 0.021 0.029 0.03955 0.07056 0.06055 0.10156 13.949 27.9 39.869 40.659 67.5 38.479 27.659-2.181 57.069-18.489 80.85-46.779l-4.3594-3.6602 4.3906 3.6191c22.66-27.48 60.269-38.868 85.219-53.908 12.47-7.52 22.581-16.94 23.371-30.621 0.77799-13.67-7.2536-28.989-25.713-49.479v-0.00195c-0.00963-0.00964-0.02148-0.01873-0.02148-0.02734-6.069-6.85-8.9594-19.55-12.068-33.08-3.101-13.52-6.5699-28.101-17.67-37.551-0.021-0.021-0.05132-0.03955-0.07032-0.06055-2.2-1.92-4.4605-3.5396-6.7305-4.8906-2.279-1.35-4.5894-2.4503-6.8984-3.3203 15.43-45.76 9.3788-91.329-6.2012-132.5-19.11-50.54-52.479-94.568-77.969-124.69-28.53-35.99-56.432-70.149-55.881-120.61 0.849-77.01 8.4702-219.82-127.05-220.01zm17.979 118.64h0.36915c7.68 0 14.25 2.2584 21 7.1484 6.85 4.98 11.791 11.2 15.771 19.9 3.9 8.48 5.7797 16.77 5.9707 26.6-1e-3 0.26-0.00164 0.48024 0.06836 0.74024 0.08 10.09-1.6602 18.681-5.4902 27.451-2.18 5-4.6892 9.1998-7.6992 12.84-1.021-0.49-2.0787-0.96015-3.1797-1.4102-3.81-1.63-7.1802-2.9694-10.199-4.1094-3.021-1.14-5.3776-1.9198-7.8086-2.7598 1.761-2.13 5.2285-4.6391 6.5195-7.7891 1.96-4.75 2.9216-9.3919 3.1016-14.922 0-0.22 0.06836-0.40992 0.06836-0.66992 0.11-5.3-0.58867-9.8288-2.1387-14.469-1.62-4.87-3.6812-8.3712-6.6602-11.281-2.99-2.91-5.9708-4.2296-9.5508-4.3496-0.17-0.01-0.33-0.00977-0.5-0.00977-3.36 0.01-6.2798 1.1694-9.3008 3.6894-3.17 2.65-5.5195 6.0417-7.4785 10.762-1.95 4.72-2.9106 9.399-3.1016 14.959-0.029 0.22-0.02929 0.41086-0.02929 0.63086-0.07 3.06 0.12961 5.8601 0.59961 8.5801-6.88-3.43-15.682-5.9328-21.762-7.3828-0.35-2.63-0.54938-5.3397-0.60938-8.1797v-0.76954c-0.11-10.06 1.5402-18.689 5.4102-27.449 3.87-8.77 8.6594-15.071 15.398-20.201 6.75-5.12 13.381-7.4688 21.23-7.5488zm-104.89 8.3398c5.11 0.01 9.6706 1.7105 14.391 5.4805 5.12 4.09 8.9905 9.3194 12.23 16.689 3.25 7.37 4.979 14.739 5.459 23.439v0.07032c0.23 3.65 0.20015 7.0899-0.08985 10.42-1.01 0.29-1.989 0.59969-2.959 0.92969-5.5 1.9-9.8678 3.9971-14.088 6.7871 0.41-2.92 0.47039-5.8795 0.15039-9.1895-0.03-0.18-0.03125-0.32976-0.03125-0.50976-0.44-4.39-1.3699-8.071-2.9199-11.791-1.65-3.87-3.4997-6.5992-5.9297-8.6992-2.2-1.9-4.2801-2.7798-6.5801-2.7598-0.23 0-0.46898 0.00929-0.70898 0.02929-2.58 0.22-4.72 1.4792-6.75 3.9492-2.02 2.46-3.3506 5.5201-4.3106 9.5801-0.96 4.05-1.2106 8.0316-0.81055 12.602 0 0.18 0.04102 0.32977 0.04102 0.50977 0.44 4.43 1.3302 8.1101 2.9102 11.83 1.62 3.83 3.4997 6.5602 5.9297 8.6602 0.41 0.35 0.80899 0.66922 1.209 0.94922-2.52 1.95-4.213 3.3335-6.293 4.8535-1.33 0.97-2.91 2.1302-4.75 3.4902-4.01-3.76-7.1389-8.4809-9.8789-14.711-3.24-7.36-4.9702-14.73-5.4902-23.43v-0.07032c-0.48-8.7 0.36976-16.18 2.7598-23.92 2.4-7.74 5.6-13.339 10.25-17.939 4.64-4.61 9.3209-6.9307 14.961-7.2207 0.44-0.02 0.86883-0.0293 1.2988-0.0293zm47.871 60.33c11.86-0.05 26.128 3.8394 43.398 14.939 10.61 6.9 18.861 7.4791 37.871 15.619l0.0293 0.01172 0.01953 0.00976c9.14 3.75 14.511 8.6488 17.141 13.799 2.62 5.15 2.6902 10.731 0.49023 16.611-4.389 11.75-18.409 24.12-38.068 30.26l-0.02148 0.00976-0.01953 0.00977c-9.591 3.11-17.95 10.001-27.82 15.631-9.85 5.64-21.01 10.189-36.17 9.3086-6.46-0.38-11.621-1.6588-16.041-3.5488s-8.0901-4.3914-11.58-7.1914c-6.98-5.61-13.059-12.659-21.959-17.889l-0.02929-0.00976-0.02149-0.02148c-14.34-8.11-22.179-17.489-24.629-25.619-2.46-8.13-0.15102-15.07 6.959-20.4 8-6 13.56-10.079 17.27-12.789 3.68-2.7 5.2009-3.7198 6.3809-4.8398 0-0.01 0.00977-0.01149 0.00977-0.02149l0.00976-0.00976c6.01-5.69 15.601-16.059 30.051-21.029 4.97-1.72 10.52-2.8198 16.73-2.8398zm100.2 72.311c12.92 50.92 42.96 124.47 62.271 160.36 10.27 19.04 30.689 59.5 39.51 108.25 5.59-0.171 11.75 0.64108 18.34 2.3301 23.07-59.81-19.561-124.22-39.061-142.16-7.87-7.64-8.2498-11.06-4.3398-10.9 21.14 18.71 48.909 56.319 59.01 98.779 4.609 19.359 5.5914 39.721 0.65039 59.811 2.41 1 4.8694 2.0905 7.3594 3.2715 37.03 18.029 50.721 33.709 44.141 55.109-2.17-0.08-4.3106-0.07048-6.3906-0.02148-0.19 0.01-0.38008 0.01172-0.58008 0.01172 5.37-16.96-6.5099-29.471-38.17-43.791-32.83-14.439-58.99-13.009-63.41 16.291-0.28 1.53-0.50969 3.0997-0.67969 4.6797-2.46 0.86001-4.9204 1.9391-7.4004 3.2891-15.41 8.44-23.83 23.74-28.51 42.521-4.67 18.76-6.0208 41.43-7.3008 66.92v0.01953c-0.79 12.811-6.0702 30.151-11.41 48.512-53.78 38.369-128.42 54.989-191.8 11.729-4.29-6.79-9.221-13.52-14.291-20.16-3.24-4.239-6.5692-8.4504-9.8692-12.609 6.5 0.01 12.03-1.0611 16.5-3.0801 5.56-2.53 9.4604-6.5685 11.4-11.77 3.86-10.39-0.02062-25.051-12.391-41.801-12.37-16.74-33.32-35.63-64.1-54.51v-0.00976c-22.62-14.07-35.26-31.312-41.18-50.031-5.93-18.73-5.1012-38.979-0.53125-58.969 8.76-38.37 31.261-75.691 45.621-99.111 3.86-2.84 1.379 5.2818-14.541 34.842-14.26 27.021-40.93 89.379-4.4199 138.06 0.98-34.641 9.2506-69.971 23.141-103.02 20.23-45.85 62.54-125.38 65.9-188.76 1.74 1.26 7.6898 5.2791 10.34 6.7891 0.01 0.01 0.00953 0.01172 0.01953 0.01172 7.76 4.57 13.591 11.248 21.141 17.318 7.57 6.08 17.019 11.33 31.299 12.16 1.37 0.08 2.7115 0.12109 4.0215 0.12109 14.72 0 26.2-4.8015 35.76-10.271 10.391-5.94 18.69-12.518 26.561-15.078 0.01-0.01 0.0193-0.01172 0.0293-0.01172 16.63-5.2 29.84-14.399 37.359-25.119zm78.379 324.44c1.351 22.03 12.26 44.512 31.539 49.371 21.101 5.561 51.512-12.541 64.352-27.311 2.569-0.101 5.069-0.23102 7.5-0.29102 11.27-0.27099 20.709 0.38032 30.369 8.8203l0.0293 0.02929 0.0293 0.02149c7.42 6.29 10.952 18.171 14.012 31.471 3.061 13.311 5.4987 27.799 14.68 38.129l0.00977 0.00976 0.00976 0.02149c17.641 19.57 23.312 32.79 22.822 41.24-0.48 8.439-6.5909 14.71-17.881 21.51-22.561 13.61-62.551 25.451-88.08 56.381-22.181 26.39-49.22 40.88-73.029 42.76s-44.351-8.0005-56.471-32.311l-0.01953-0.05078-0.0293-0.06055c-7.521-14.3-4.3925-36.849 1.9375-60.648 6.33-23.79 15.43-48.23 16.65-68.08v-0.06054c1.279-25.439 2.7095-47.661 6.9785-64.811 4.28-17.15 11.011-28.749 22.932-35.279 0.56-0.3 1.1102-0.59133 1.6602-0.86133zm-387.58 1.6602c0.12 0.011 0.22961 0.011 0.34961 0 1.78 0.011 3.6699 0.1597 5.6699 0.4707 13.5 2.04 25.269 11.479 36.609 26.859l32.74 59.67 0.00977 0.0293 0.01953 0.02148c8.71 18.19 27.111 38.199 42.701 58.609 15.59 20.401 27.65 40.89 26.08 56.57l-0.00977 0.06055v0.07031c-2.04 26.74-17.121 41.3-40.281 46.59-23.14 5.29-54.529 0.02186-85.869-16.369-0.01 0-0.01929-0.01172-0.02929-0.01172-34.68-18.37-75.93-16.538-102.4-22.068-13.23-2.76-21.87-6.9206-25.83-14.641-3.96-7.73-4.0509-21.2 4.3691-44.17l0.041016-0.10157 0.029297-0.09961c4.17-12.85 1.0805-26.909-0.93945-40.109-2.02-13.189-3.01-25.2 1.5-33.561l0.039062-0.08008c5.77-11.12 14.23-15.099 24.73-18.859 10.51-3.77 22.959-6.7288 32.789-16.59l0.06055-0.05079 0.05078-0.05078c9.09-9.59 15.92-21.618 23.91-30.148 6.74-7.2 13.49-11.971 23.66-12.041z" fill="#c8c8c8"/></svg>
