<?xml version="1.0" encoding="UTF-8"?>
<svg width="63.754mm" height="63.756mm" version="1.1" viewBox="0 0 63.754 63.756" xmlns="http://www.w3.org/2000/svg"><g transform="translate(-69.953 -107.43)"><g transform="translate(-47.337 -77.754)"><path d="m149.17 192.69c-13.613 0-24.377 10.766-24.377 24.379s10.764 24.377 24.377 24.377c13.613 0 24.377-10.764 24.377-24.377s-10.764-24.379-24.377-24.379z" fill="#efefef"/><g fill="#4a4a4a"><path transform="matrix(.26458 0 0 .26458 117.29 185.19)" d="m173.73 68.916-59.967 69.365 46.168-3.168zm-17.432 33.891-4.791 22.986-16.371 1.123z"/><path transform="matrix(.26458 0 0 .26458 117.29 185.19)" d="m173.3 44.664-77.67 91.187-4.1309 19.672 52.963-3.666-12.523 60.076c4.246-0.51085 8.3969-1.3034 12.434-2.3574l14.828-70.951-52.965 3.666 73.674-86.084-16.471 78.666 22.312-1.5312-0.73047 3.5117-22.318 1.5312-14.656 70.154c4.5465-1.3905 8.9331-3.1214 13.137-5.1582l11.145-53.438 22.477-1.543 5.9004-28.309-22.473 1.543 12.717-60.953c-5.1462-6.0815-11.078-11.468-17.648-16.018z"/><path transform="matrix(.26458 0 0 .26458 117.29 185.19)" d="m99.322 49.641-41.506 2.9023c-3.2184 2.9648-6.221 6.1596-8.9824 9.5605l-4.082 19.445 20.725-1.4512-19.74 94.73c2.9144 4.0308 6.1485 7.8103 9.6699 11.301l25.035-119.74-20.727 1.4492 0.69141-3.2715 23.947-1.6758-26.297 125.76c3.2967 3.0146 6.8163 5.7891 10.537 8.2969z"/></g></g></g></svg>
